<?xml version="1.0" encoding="UTF-8"?>
<svg version="1.1" xmlns="http://www.w3.org/2000/svg" width="350" height="320">
<path d="M0 0 C3.09042688 0.70777045 5.09554471 1.56296873 7.66015625 3.44921875 C8.7123938 4.21613037 8.7123938 4.21613037 9.78588867 4.99853516 C10.53717041 5.55589355 11.28845215 6.11325195 12.0625 6.6875 C12.85180908 7.2654834 13.64111816 7.8434668 14.4543457 8.43896484 C16.97414377 10.28650196 19.48730784 12.14281378 22 14 C23.62729507 15.19703489 25.254895 16.39365548 26.8828125 17.58984375 C30.8508377 20.50795876 34.81421259 23.4323197 38.77636719 26.35839844 C47.58361068 32.86036432 56.40386689 39.33878415 65.34692383 45.65332031 C66.90554233 46.75824656 68.45306641 47.87877294 70 49 C70.8772876 49.49411377 71.7545752 49.98822754 72.65844727 50.49731445 C76.28139338 54.36957184 75.62519936 58.12151879 75.48828125 63.234375 C75.47766914 64.72411835 75.47766914 64.72411835 75.46684265 66.24395752 C75.43887288 69.41340733 75.37612801 72.58108497 75.3125 75.75 C75.28742054 77.89971406 75.26460676 80.04945582 75.24414062 82.19921875 C75.18903822 87.4667496 75.10538665 92.7332482 75 98 C75.75055664 98.27602051 76.50111328 98.55204102 77.27441406 98.83642578 C79.76056937 99.89778517 81.50784341 100.95225408 83.609375 102.6171875 C84.27275879 103.13555176 84.93614258 103.65391602 85.61962891 104.18798828 C86.32265137 104.74470215 87.02567383 105.30141602 87.75 105.875 C94.21359649 110.90878334 100.76817765 115.75508913 107.49902344 120.42529297 C108.8386139 121.35740474 110.15285661 122.32653218 111.44604492 123.32202148 C113.63646607 124.76115394 115.41804677 125.57835123 117.8293457 126.50805664 C122.76315617 128.73684276 126.39607489 131.1353027 129 136 C131.46256405 147.2532555 130.48084487 159.16392245 130.02996826 170.59533691 C129.87551603 174.92509696 129.80780697 179.25616033 129.73242188 183.58789062 C129.57233577 192.06220163 129.31695065 200.53011083 129 209 C126.2373743 210.38131285 124.00536598 210.12721691 120.91381836 210.12939453 C119.63586899 210.13254669 118.35791962 210.13569885 117.04124451 210.13894653 C115.64077724 210.13715689 114.24031028 210.13510597 112.83984375 210.1328125 C111.41020186 210.13348579 109.98056008 210.13445602 108.55091858 210.13571167 C105.55403555 210.137187 102.55718231 210.13503906 99.56030273 210.13037109 C95.71091058 210.12466874 91.86158806 210.12795704 88.01219845 210.13394356 C85.06034313 210.13754923 82.10850444 210.13641065 79.15664864 210.13381577 C77.73681187 210.13314678 76.31697362 210.13397393 74.8971386 210.13629532 C72.91702171 210.13882246 70.93689955 210.13429071 68.95678711 210.12939453 C67.82808701 210.12859894 66.6993869 210.12780334 65.53648376 210.12698364 C63 210 63 210 62 209 C61.90477582 206.13908182 61.87446674 203.30236379 61.88647461 200.44116211 C61.88632858 199.54368759 61.88618256 198.64621307 61.8860321 197.72154236 C61.88673158 194.74011866 61.89452559 191.7587566 61.90234375 188.77734375 C61.90420781 186.71611058 61.90563177 184.65487696 61.90663147 182.59364319 C61.91045763 177.1569599 61.92028874 171.72030314 61.93133545 166.28363037 C61.94154747 160.74052286 61.94612864 155.19741108 61.95117188 149.65429688 C61.96191092 138.76951957 61.97898851 127.88476198 62 117 C67.49653506 118.28582061 71.52030145 120.43401742 75 125 C76.26231405 130.40530604 76.05089798 135.70976765 75.87890625 141.21484375 C75.86210136 142.79663967 75.84929906 144.37848272 75.84031677 145.96034241 C75.80609705 150.10608288 75.71782819 154.24894484 75.61798096 158.39355469 C75.50932481 163.3757198 75.4683325 168.3588525 75.41590118 173.34186554 C75.32888151 180.89657345 75.1563907 188.44497764 75 196 C88.86 196 102.72 196 117 196 C117.29577416 188.8345494 117.52964846 181.71643 117.61645508 174.55224609 C117.66335171 172.12490246 117.74406298 169.69794747 117.8605957 167.27294922 C118.86575633 153.77154672 118.86575633 153.77154672 114.19732666 141.5682373 C109.79916047 137.33346637 104.82745687 134.29351271 99.47927856 131.40325928 C95.41329529 129.10193307 91.73773096 126.29157991 88 123.5 C86.51219312 122.42462129 85.02281016 121.35141679 83.53125 120.28125 C78.03904057 116.3146543 72.59274656 112.28637526 67.14501953 108.2590332 C60.63942725 103.45568139 54.09081709 98.71379193 47.52148438 93.99804688 C46.81056641 93.48693359 46.09964844 92.97582031 45.3671875 92.44921875 C44.73925293 91.99893311 44.11131836 91.54864746 43.46435547 91.0847168 C42 90 42 90 41 89 C40.67 128.6 40.34 168.2 40 209 C36.04 209.33 32.08 209.66 28 210 C28 161.49 28 112.98 28 63 C40.29264594 70.82259287 40.29264594 70.82259287 45.5625 75 C50.89799574 79.21844137 56.40469898 83.13281324 62 87 C63.7853814 71.71264721 63.7853814 71.71264721 59.37792969 57.55664062 C55.0698502 53.31655091 49.92652134 50.41831369 44.65722656 47.52392578 C40.33501968 45.04512981 36.4222095 42.04281513 32.4375 39.0625 C27.90094919 35.76727316 23.3298484 32.52314827 18.73461914 29.31030273 C17.39990318 28.3768528 17.39990318 28.3768528 16.03822327 27.42454529 C15.36560959 26.95444534 14.69299591 26.4843454 14 26 C14.01451706 27.42034546 14.01451706 27.42034546 14.02932739 28.86938477 C14.11419865 37.81456031 14.14615817 46.75858765 14.12697029 55.7041626 C14.1187891 60.30290531 14.12892807 64.9000553 14.18164062 69.49853516 C14.23187633 73.94076274 14.23306604 78.38059891 14.20095444 82.82296753 C14.19721732 84.51338877 14.21083921 86.20394457 14.24249649 87.89407349 C14.47347781 101.12685085 14.47347781 101.12685085 10.81230164 105.78109741 C8.29578638 107.81746681 5.82618345 109.4328702 3 111 C1.86492902 111.80981203 0.73936261 112.63331382 -0.37109375 113.4765625 C-1.38300781 114.18554688 -2.39492187 114.89453125 -3.4375 115.625 C-9.18004561 119.67704342 -14.84995258 123.82005763 -20.5 128 C-26.31628095 132.29442699 -32.13537395 136.58422329 -38 140.8125 C-38.56912109 141.22693359 -39.13824219 141.64136719 -39.72460938 142.06835938 C-42.15542183 143.81148811 -44.13882801 145.046276 -47 146 C-47 162.5 -47 179 -47 196 C-39.08 196 -31.16 196 -23 196 C-23.11601562 192.1225 -23.23203125 188.245 -23.3515625 184.25 C-23.42962516 180.48038915 -23.49030026 176.71086944 -23.54931641 172.94091797 C-23.59950499 170.32755007 -23.66767414 167.71446159 -23.75439453 165.10205078 C-23.87617991 161.33816614 -23.93251001 157.578 -23.9765625 153.8125 C-24.02817535 152.65073242 -24.07978821 151.48896484 -24.13296509 150.29199219 C-24.13635865 145.34734047 -24.09020669 142.26203258 -20.77752686 138.42724609 C-14.16756811 133 -14.16756811 133 -11 133 C-11 158.08 -11 183.16 -11 209 C-18.734375 209.185625 -26.46875 209.37125 -34.4375 209.5625 C-36.88212646 209.62381104 -39.32675293 209.68512207 -41.84545898 209.74829102 C-43.77066138 209.79223388 -45.69587247 209.83579864 -47.62109375 209.87890625 C-49.13564148 209.9189679 -49.13564148 209.9189679 -50.68078613 209.95983887 C-51.6348938 209.98026245 -52.58900146 210.00068604 -53.57202148 210.02172852 C-54.82111549 210.05170677 -54.82111549 210.05170677 -56.09544373 210.08229065 C-58 210 -58 210 -59 209 C-59.1469527 206.8656767 -59.22311896 204.72645935 -59.2722168 202.58764648 C-59.28842575 201.91760086 -59.3046347 201.24755524 -59.32133484 200.5572052 C-59.46189657 194.35629097 -59.53974003 188.15392841 -59.60025311 181.95176601 C-59.64117147 177.78527712 -59.70137346 173.62114814 -59.80932617 169.45581055 C-59.91336872 165.42786828 -59.96770223 161.40202724 -59.98771095 157.3728199 C-60.00359935 155.84126172 -60.03673197 154.30977659 -60.08786583 152.77898979 C-60.46819705 140.81437229 -60.46819705 140.81437229 -56.83338928 136.32254028 C-54.31110662 134.28245002 -51.8058464 132.6194494 -49 131 C-47.77206529 130.11859592 -46.551785 129.22615789 -45.34765625 128.3125 C-44.25475106 127.53862575 -43.15976105 126.76768566 -42.0625 126 C-40.38103632 124.81500737 -38.70647545 123.62891997 -37.05639648 122.40039062 C-35 121 -35 121 -32.13305664 119.52148438 C-28.78782638 117.60114924 -26.47478821 115.9741512 -24 113 C-22.64466004 107.10492909 -22.95214526 101.50055549 -23.3125 95.5 C-23.36774842 93.89860589 -23.41792616 92.29702835 -23.46289062 90.6953125 C-23.58343496 86.79230595 -23.7727328 82.8981888 -24 79 C-33.2035684 85.61698809 -42.38378155 92.26303781 -51.5 99 C-57.97548883 103.78427511 -64.4732099 108.53591355 -71 113.25 C-71.75990234 113.79914063 -72.51980469 114.34828125 -73.30273438 114.9140625 C-76.17783777 116.98687263 -79.05031877 119.03354585 -82 121 C-82.3159709 123.83801864 -82.43737436 126.46253607 -82.43237305 129.30517578 C-82.4425647 130.16378204 -82.45275635 131.02238831 -82.46325684 131.90701294 C-82.49352067 134.75317801 -82.50267309 137.5990073 -82.51171875 140.4453125 C-82.52855553 142.41544729 -82.5467044 144.38557127 -82.56611633 146.35568237 C-82.61373122 151.54734927 -82.64346615 156.73897238 -82.66955566 161.93078613 C-82.69930337 167.22608088 -82.74585347 172.5212245 -82.79101562 177.81640625 C-82.87717937 188.21085864 -82.94446636 198.60534202 -83 209 C-84.81181405 209.19401633 -86.62448532 209.38004375 -88.4375 209.5625 C-89.44683594 209.66691406 -90.45617187 209.77132812 -91.49609375 209.87890625 C-92.32238281 209.91886719 -93.14867188 209.95882812 -94 210 C-96.11884564 207.88115436 -95.31630822 203.21309102 -95.39916992 200.28027344 C-95.42822922 199.36466644 -95.45728851 198.44905945 -95.48722839 197.50570679 C-95.74211907 189.01907015 -95.89434101 180.53040038 -96.01475048 172.04088974 C-96.09726975 166.33837398 -96.21373738 160.64114169 -96.4128418 154.94140625 C-96.60451079 149.42833714 -96.7060963 143.92011793 -96.7467289 138.40393829 C-96.77728407 136.30949898 -96.83906281 134.21525702 -96.93370628 132.12273407 C-97.62209798 116.18826011 -97.62209798 116.18826011 -93.233181 110.85169029 C-88.93803181 106.93744687 -84.17458421 103.97418627 -79.09741116 101.18257523 C-76.42071059 99.67338149 -74.00633987 97.89759885 -71.578125 96.01953125 C-70.48721558 95.21201416 -70.48721558 95.21201416 -69.37426758 94.38818359 C-68.67325928 93.86820801 -67.97225098 93.34823242 -67.25 92.8125 C-61.80415835 88.78486371 -56.33920861 84.79094509 -50.8125 80.875 C-45.8118994 77.33133035 -40.89281244 73.69095617 -36 70 C-30.7641381 66.0549897 -25.50705621 62.14414669 -20.1875 58.3125 C-19.60677734 57.89033203 -19.02605469 57.46816406 -18.42773438 57.03320312 C-15.95169263 55.26122104 -13.91010452 53.97003484 -11 53 C-10.67 69.5 -10.34 86 -10 103 C-0.85204066 97.37053215 -0.85204066 97.37053215 0.12025452 91.51368713 C0.16364865 89.80728237 0.15851987 88.09918558 0.11352539 86.39282227 C0.1245932 85.45545731 0.13566101 84.51809235 0.14706421 83.55232239 C0.17295825 80.47220853 0.13571914 77.39633717 0.09765625 74.31640625 C0.10331159 72.17405333 0.11292539 70.03170751 0.12632751 67.88938904 C0.15091564 62.26483864 0.12187205 56.64180464 0.08154297 51.01739502 C0.04987841 45.27261162 0.06909143 39.52802112 0.08398438 33.78320312 C0.10569961 22.5217441 0.07074064 11.2612313 0 0 Z M13 115 C13 146.02 13 177.04 13 209 C2 210 2 210 0 209 C-0.2320874 198.05600011 -0.40957542 187.11258895 -0.51812172 176.16662598 C-0.5702304 171.08334204 -0.64085645 166.00174601 -0.75439453 160.91943359 C-0.86335825 156.01095102 -0.92290373 151.10408749 -0.94877243 146.19448853 C-0.96719662 144.32523104 -1.00317896 142.45605855 -1.05730057 140.5874939 C-1.46459677 125.93772593 -1.46459677 125.93772593 2.22247314 121.05957031 C4.73507108 119.01508566 7.10473383 117.4380957 10 116 C12 115 12 115 13 115 Z M-157 231 C-153.679375 230.9175 -150.35875 230.835 -146.9375 230.75 C-145.90488037 230.71358398 -144.87226074 230.67716797 -143.80834961 230.63964844 C-137.62382465 230.56567515 -134.04191309 231.36606796 -129 235 C-125.59754668 238.73172299 -125.44596003 242.61883137 -125.5625 247.484375 C-126.27896057 251.60402327 -128.28642501 253.87938876 -131 257 C-130.6390625 257.47050781 -130.278125 257.94101562 -129.90625 258.42578125 C-129.21015625 259.35970703 -129.21015625 259.35970703 -128.5 260.3125 C-128.0359375 260.92738281 -127.571875 261.54226563 -127.09375 262.17578125 C-126 264 -126 264 -126 267 C-129.12852938 267.5005647 -131.89161962 267.69018314 -135 267 C-136.84324607 265.09275233 -138.10759088 263.09022745 -139.515625 260.84765625 C-141.26382776 258.67160386 -142.14894948 258.34348237 -144.875 258 C-145.90625 258 -146.9375 258 -148 258 C-148 260.97 -148 263.94 -148 267 C-150.97 267 -153.94 267 -157 267 C-157 255.12 -157 243.24 -157 231 Z M-148 239 C-148 242.3 -148 245.6 -148 249 C-146.20906809 249.08086147 -144.41710372 249.13912702 -142.625 249.1875 C-141.62726563 249.22230469 -140.62953125 249.25710938 -139.6015625 249.29296875 C-138.31378906 249.14794922 -138.31378906 249.14794922 -137 249 C-134.74837398 246.24528606 -134.74837398 246.24528606 -135.0625 243.4375 C-135.77911417 240.84019791 -135.77911417 240.84019791 -138.125 239.6875 C-141.49514017 238.88159692 -144.54686063 238.86458277 -148 239 Z M-119 231 C-110.42 231 -101.84 231 -93 231 C-93 233.64 -93 236.28 -93 239 C-98.94 239 -104.88 239 -111 239 C-111 240.98 -111 242.96 -111 245 C-105.72 245 -100.44 245 -95 245 C-95 247.64 -95 250.28 -95 253 C-100.28 253 -105.56 253 -111 253 C-111 254.98 -111 256.96 -111 259 C-104.73 259 -98.46 259 -92 259 C-92 261.64 -92 264.28 -92 267 C-100.91 267 -109.82 267 -119 267 C-119 255.12 -119 243.24 -119 231 Z M-75 231 C-72.03 231 -69.06 231 -66 231 C-62.16319567 238.40277541 -58.59263679 245.91853178 -55.125 253.5 C-54.71967041 254.37237305 -54.31434082 255.24474609 -53.89672852 256.14355469 C-53.52088623 256.97274414 -53.14504395 257.80193359 -52.7578125 258.65625 C-52.4189502 259.39681641 -52.08008789 260.13738281 -51.73095703 260.90039062 C-51 263 -51 263 -51 267 C-53.97 267 -56.94 267 -60 267 C-60.33644531 266.02804687 -60.67289063 265.05609375 -61.01953125 264.0546875 C-62.74024145 260.62091276 -62.74024145 260.62091276 -66.57421875 260.1953125 C-67.94448986 260.14235516 -69.31621551 260.11987849 -70.6875 260.125 C-71.7403418 260.0940625 -71.7403418 260.0940625 -72.81445312 260.0625 C-74.54245468 260.01547955 -76.27136406 260.00425249 -78 260 C-78.309375 260.969375 -78.61875 261.93875 -78.9375 262.9375 C-80 266 -80 266 -81 267 C-84.00003445 267.14177857 -86.99757235 267.04228771 -90 267 C-87.54933568 259.02889185 -84.24006872 251.52991078 -80.8125 243.9375 C-80.24765492 242.67791007 -79.68319889 241.4181456 -79.11914062 240.15820312 C-77.74989682 237.10373617 -76.37676603 234.05108191 -75 231 Z M-71 243 C-71.99 245.97 -72.98 248.94 -74 252 C-71.36 252 -68.72 252 -66 252 C-66.4495045 250.68445015 -66.90989716 249.37261642 -67.375 248.0625 C-67.75785156 246.96615234 -67.75785156 246.96615234 -68.1484375 245.84765625 C-68.85271413 243.81317884 -68.85271413 243.81317884 -71 243 Z M-46 231 C-43.36 231 -40.72 231 -38 231 C-38 240.24 -38 249.48 -38 259 C-32.39 259 -26.78 259 -21 259 C-21 261.64 -21 264.28 -21 267 C-29.58 267 -38.16 267 -47 267 C-47.02290956 262.03371566 -47.04283643 257.06761337 -47.05493164 252.10131836 C-47.0599719 250.41055684 -47.06680405 248.71979971 -47.07543945 247.02905273 C-47.08751857 244.60399293 -47.09323123 242.17899056 -47.09765625 239.75390625 C-47.10281754 238.99348526 -47.10797882 238.23306427 -47.11329651 237.44960022 C-47.11349238 235.6326743 -47.06197277 233.81586873 -47 232 C-46.67 231.67 -46.34 231.34 -46 231 Z M-1 231 C7.91 231 16.82 231 26 231 C26 233.64 26 236.28 26 239 C20.06 239 14.12 239 8 239 C8 240.98 8 242.96 8 245 C13.28 245 18.56 245 24 245 C24 247.64 24 250.28 24 253 C18.72 253 13.44 253 8 253 C8 254.98 8 256.96 8 259 C14.27 259 20.54 259 27 259 C27 261.64 27 264.28 27 267 C17.76 267 8.52 267 -1 267 C-1 255.12 -1 243.24 -1 231 Z M46.5 230.625 C47.7890625 230.61726562 49.078125 230.60953125 50.40625 230.6015625 C54.10968495 231.01216072 56.01949804 231.83340434 59 234 C58.40138258 236.35171131 57.73075648 238.6859378 57 241 C56.01 241.495 56.01 241.495 55 242 C54.39671875 241.69320312 53.7934375 241.38640625 53.171875 241.0703125 C50.65542567 239.83019179 49.03289513 239.79315014 46.25 239.875 C45.05117187 239.90207031 45.05117187 239.90207031 43.828125 239.9296875 C42.92320312 239.96449219 42.92320312 239.96449219 42 240 C42 240.99 42 241.98 42 243 C42.88042969 243.23074219 43.76085937 243.46148437 44.66796875 243.69921875 C57.11692472 247.19487453 57.11692472 247.19487453 60 252 C60.9003828 256.57694591 60.64603431 259.87542175 58.3125 263.9375 C53.586949 268.15218062 48.89652498 268.37763583 42.80078125 268.25390625 C38.63822208 267.87654733 35.72033495 266.92906257 32 265 C30.86851494 262.15118481 30.92492803 261.22021112 31.9375 258.25 C32.288125 257.5075 32.63875 256.765 33 256 C33.64066406 256.22816406 34.28132812 256.45632813 34.94140625 256.69140625 C40.47460979 258.53030996 44.30441206 259.36198842 50 258 C50 257.34 50 256.68 50 256 C48.95199219 255.67386719 47.90398437 255.34773438 46.82421875 255.01171875 C45.44515825 254.57079465 44.06626038 254.12936168 42.6875 253.6875 C41.99720703 253.47416016 41.30691406 253.26082031 40.59570312 253.04101562 C34.04341583 250.92022698 34.04341583 250.92022698 32 248 C30.87372297 243.81668533 30.87395303 241.42015656 32.125 237.25 C35.64164208 231.15448706 39.73739256 230.58442436 46.5 230.625 Z M62 231 C71.9 231 81.8 231 92 231 C92 233.64 92 236.28 92 239 C88.37 239 84.74 239 81 239 C81 248.24 81 257.48 81 267 C78.03 267 75.06 267 72 267 C72 257.76 72 248.52 72 239 C68.7 239 65.4 239 62 239 C62 236.36 62 233.72 62 231 Z M108.06640625 230.90234375 C109.30197266 230.91974609 109.30197266 230.91974609 110.5625 230.9375 C111.38878906 230.94652344 112.21507812 230.95554688 113.06640625 230.96484375 C113.70449219 230.97644531 114.34257812 230.98804688 115 231 C117.14345242 235.6414866 119.27948655 240.28628644 121.40869141 244.93432617 C122.13419508 246.51533989 122.86172391 248.09542592 123.59130859 249.67456055 C124.639121 251.94339516 125.67962597 254.21545675 126.71875 256.48828125 C127.04685669 257.19463211 127.37496338 257.90098297 127.7130127 258.6287384 C129.061098 261.5935089 130 263.70363935 130 267 C126.7 267 123.4 267 120 267 C119.34 264.69 118.68 262.38 118 260 C112.72 260 107.44 260 102 260 C101.67 261.98 101.34 263.96 101 266 C100 267 100 267 97.93359375 267.09765625 C97.10988281 267.08605469 96.28617188 267.07445312 95.4375 267.0625 C94.61121094 267.05347656 93.78492188 267.04445313 92.93359375 267.03515625 C92.29550781 267.02355469 91.65742188 267.01195312 91 267 C91.56763669 261.67423224 93.40753968 257.60158812 95.75 252.875 C98.74445112 246.69394766 101.53389235 240.50188214 104.08984375 234.125 C105.4164979 231.02757571 105.4164979 231.02757571 108.06640625 230.90234375 Z M110 243 C108.02 247.455 108.02 247.455 106 252 C108.64 252 111.28 252 114 252 C113.01 249.03 112.02 246.06 111 243 C110.67 243 110.34 243 110 243 Z M128 231 C138.23 231 148.46 231 159 231 C159 233.64 159 236.28 159 239 C155.37 239 151.74 239 148 239 C148 248.24 148 257.48 148 267 C145.03 267 142.06 267 139 267 C139 257.76 139 248.52 139 239 C135.37 239 131.74 239 128 239 C128 236.36 128 233.72 128 231 Z M164 231 C172.91 231 181.82 231 191 231 C191 233.64 191 236.28 191 239 C185.06 239 179.12 239 173 239 C173 240.98 173 242.96 173 245 C178.28 245 183.56 245 189 245 C189 247.64 189 250.28 189 253 C183.72 253 178.44 253 173 253 C173 254.98 173 256.96 173 259 C178.94 259 184.88 259 191 259 C191 261.64 191 264.28 191 267 C182.09 267 173.18 267 164 267 C164 255.12 164 243.24 164 231 Z M-2 281 C-1.67 282.32 -1.34 283.64 -1 285 C-3.97 285 -6.94 285 -10 285 C-10.33 285.66 -10.66 286.32 -11 287 C-6.05 288.98 -6.05 288.98 -1 291 C-0.67 293.31 -0.34 295.62 0 298 C-2.6009193 300.49688253 -3.89504983 300.99079384 -7.5625 301.3125 C-11 301 -11 301 -14 299 C-14 298.01 -14 297.02 -14 296 C-10.37 296.33 -6.74 296.66 -3 297 C-3.33 296.01 -3.66 295.02 -4 294 C-6.09719872 292.97718482 -6.09719872 292.97718482 -8.5625 292.3125 C-9.38878906 292.06113281 -10.21507812 291.80976563 -11.06640625 291.55078125 C-11.70449219 291.36902344 -12.34257812 291.18726563 -13 291 C-14.25 284.375 -14.25 284.375 -12 281 C-8.30581799 279.768606 -5.7943739 280.35567236 -2 281 Z M99 281 C102.01185259 282.60632138 103.62345605 283.76410421 104.63671875 287.08984375 C105.22310339 290.87927567 105.2638193 293.34739437 103.8125 296.9375 C100.88434988 300.2695329 99.02799767 300.86674104 94.625 301.4375 C90.99555163 300.99946313 88.80538354 300.29437967 86.109375 297.7578125 C83.80324405 294.10373177 84.08528344 290.09604694 85 286 C89.08171808 280.59448147 92.49133324 279.30774664 99 281 Z M88.5 285.5625 C86.69713659 288.02881278 86.69713659 288.02881278 86.9375 291.5625 C87.70331384 295.06733311 87.70331384 295.06733311 90.1875 297 C93.6445605 298.22917707 95.50668376 298.0631832 99 297 C100.98029682 295.93654948 100.98029682 295.93654948 102 294 C102.53520313 290.40649325 102.44814771 288.68118452 100.4375 285.625 C96.31820752 282.87880501 92.67731634 282.95167729 88.5 285.5625 Z M141 281 C141.33 282.32 141.66 283.64 142 285 C139.03 285 136.06 285 133 285 C132.67 285.99 132.34 286.98 132 288 C132.62648438 288.12117188 133.25296875 288.24234375 133.8984375 288.3671875 C135.12433594 288.61855469 135.12433594 288.61855469 136.375 288.875 C137.18710937 289.03742188 137.99921875 289.19984375 138.8359375 289.3671875 C141 290 141 290 143 292 C143.3125 295.5 143.3125 295.5 143 299 C139.29873141 301.46751239 137.37776468 301.30721156 133 301 C130.5625 300 130.5625 300 129 299 C129 298.01 129 297.02 129 296 C129.93972656 296.14308594 129.93972656 296.14308594 130.8984375 296.2890625 C132.12433594 296.45535156 132.12433594 296.45535156 133.375 296.625 C134.18710937 296.74101562 134.99921875 296.85703125 135.8359375 296.9765625 C136.55007813 296.98429687 137.26421875 296.99203125 138 297 C138.66 296.34 139.32 295.68 140 295 C139.28972656 294.69707031 138.57945312 294.39414062 137.84765625 294.08203125 C136.92855469 293.66308594 136.00945312 293.24414062 135.0625 292.8125 C134.14597656 292.40644531 133.22945313 292.00039063 132.28515625 291.58203125 C130 290 130 290 129.10546875 287.46484375 C129 285 129 285 130.25 282.75 C133.68696702 279.31303298 136.56951029 280.11390206 141 281 Z M-108 281 C-107.34 281 -106.68 281 -106 281 C-106 283.64 -106 286.28 -106 289 C-102.04 289 -98.08 289 -94 289 C-94 286.36 -94 283.72 -94 281 C-93.34 281 -92.68 281 -92 281 C-92 287.6 -92 294.2 -92 301 C-92.66 301 -93.32 301 -94 301 C-94 298.03 -94 295.06 -94 292 C-97.63 292.33 -101.26 292.66 -105 293 C-105.33 295.64 -105.66 298.28 -106 301 C-106.66 301 -107.32 301 -108 301 C-108 294.4 -108 287.8 -108 281 Z M-73 281 C-70.74273989 282.89121793 -69.31353576 284.37292849 -68 287 C-67.4188862 294.08958838 -67.4188862 294.08958838 -69.875 297.9375 C-73.1301946 301.09695358 -75.42413238 301.33421243 -79.9609375 301.29296875 C-83.13134567 300.83745033 -84.8192402 299.24684343 -87 297 C-88.59944185 293.8011163 -88.36060914 290.47921042 -88 287 C-86.59026133 283.39733451 -85.67002405 282.32756731 -82.1875 280.625 C-78.63963207 279.92933962 -76.45681754 279.9479251 -73 281 Z M-83.3125 285.8125 C-85.17631174 287.98047605 -85.17631174 287.98047605 -86 291 C-84.73395077 293.73200097 -83.59618385 295.5477226 -81.1875 297.375 C-78.05686239 298.26946789 -76.09334601 297.98723809 -73 297 C-70.82979708 294.91078244 -70.82979708 294.91078244 -70 292 C-70.48762261 288.78683477 -70.48762261 288.78683477 -72 286 C-76.1049773 283.26334847 -79.27871887 282.65088777 -83.3125 285.8125 Z M-64 281 C-60 282 -60 282 -58.515625 283.99609375 C-58.09796875 284.80175781 -57.6803125 285.60742188 -57.25 286.4375 C-56.60804687 287.64212891 -56.60804687 287.64212891 -55.953125 288.87109375 C-55 291 -55 291 -55 293 C-51.78644361 290.03585396 -49.7098894 286.54478538 -47.40234375 282.86328125 C-46.93957031 282.24839844 -46.47679688 281.63351562 -46 281 C-45.34 281 -44.68 281 -44 281 C-44 287.6 -44 294.2 -44 301 C-44.66 301 -45.32 301 -46 301 C-46.33 297.04 -46.66 293.08 -47 289 C-48.65 291.97 -50.3 294.94 -52 298 C-56 297 -56 297 -57.265625 295.37109375 C-58.17708333 293.58072917 -59.08854167 291.79036458 -60 290 C-60.33 293.63 -60.66 297.26 -61 301 C-61.99 301 -62.98 301 -64 301 C-64 294.4 -64 287.8 -64 281 Z M-38 281 C-33.71 281 -29.42 281 -25 281 C-25 281.99 -25 282.98 -25 284 C-28.63 284 -32.26 284 -36 284 C-36 285.65 -36 287.3 -36 289 C-32.7 289 -29.4 289 -26 289 C-26.33 290.32 -26.66 291.64 -27 293 C-29.64 293 -32.28 293 -35 293 C-35.33 294.32 -35.66 295.64 -36 297 C-32.37 297 -28.74 297 -25 297 C-24.67 298.32 -24.34 299.64 -24 301 C-28.62 301 -33.24 301 -38 301 C-38 294.4 -38 287.8 -38 281 Z M17 281 C19.25726011 282.89121793 20.68646424 284.37292849 22 287 C22.5811138 294.08958838 22.5811138 294.08958838 20.125 297.9375 C17.41743462 300.5654311 16.54350183 300.94774021 12.75 301.3125 C8.36563187 300.94713599 6.38437523 299.73973233 3 297 C1.40055815 293.8011163 1.63939086 290.47921042 2 287 C3.40973867 283.39733451 4.32997595 282.32756731 7.8125 280.625 C11.36036793 279.92933962 13.54318246 279.9479251 17 281 Z M6.625 285.8125 C4.82933128 287.99221829 4.82933128 287.99221829 4 291 C5.66180738 294.40670513 6.80334098 295.86889399 10 298 C13.54024142 298.07767129 13.54024142 298.07767129 17 297 C19.36604164 294.33820316 20.04466185 292.93789883 19.875 289.375 C18.88729401 286.69408374 18.42194927 285.53390121 16 284 C11.98293626 283.48873734 9.89626081 283.31601149 6.625 285.8125 Z M26 281 C26.99 281 27.98 281 29 281 C29.33 286.28 29.66 291.56 30 297 C32.64 297 35.28 297 38 297 C38.33 298.32 38.66 299.64 39 301 C34.71 301 30.42 301 26 301 C26 294.4 26 287.8 26 281 Z M42 281 C42.66 281 43.32 281 44 281 C44.03738281 281.90363281 44.07476562 282.80726563 44.11328125 283.73828125 C44.17902344 284.91777344 44.24476563 286.09726562 44.3125 287.3125 C44.37050781 288.48425781 44.42851562 289.65601563 44.48828125 290.86328125 C44.75617976 293.95938502 44.75617976 293.95938502 46.37890625 295.93359375 C48.04521561 297.27219034 48.04521561 297.27219034 50.625 296.75 C52.9312407 296.22254355 52.9312407 296.22254355 54 295 C54.23527773 292.65012738 54.41386417 290.29443961 54.5625 287.9375 C54.64628906 286.64714844 54.73007813 285.35679687 54.81640625 284.02734375 C54.87699219 283.02832031 54.93757812 282.02929688 55 281 C55.66 281 56.32 281 57 281 C57.10787818 283.77186988 57.18723327 286.53955537 57.25 289.3125 C57.30027344 290.49102539 57.30027344 290.49102539 57.3515625 291.69335938 C57.45031158 297.49486788 57.45031158 297.49486788 55.203125 300.015625 C51.93846726 301.47430186 49.52783125 301.44097891 46 301 C43.796875 299.48828125 43.796875 299.48828125 42 297 C41.7093876 294.10550051 41.61813955 291.62050065 41.75 288.75 C41.76804688 288.00492187 41.78609375 287.25984375 41.8046875 286.4921875 C41.85164351 284.66090299 41.92338348 282.83028351 42 281 Z M60 281 C64.95 281 69.9 281 75 281 C75 281.99 75 282.98 75 284 C73.02 284 71.04 284 69 284 C69 289.61 69 295.22 69 301 C68.01 301 67.02 301 66 301 C66 295.39 66 289.78 66 284 C64.02 284 62.04 284 60 284 C60 283.01 60 282.02 60 281 Z M78 281 C78.99 281 79.98 281 81 281 C81 287.6 81 294.2 81 301 C80.01 301 79.02 301 78 301 C78 294.4 78 287.8 78 281 Z M109 281 C113.12638505 283.06319252 114.50114255 284.55148531 117.25 288.125 C117.95640625 289.03507812 118.6628125 289.94515625 119.390625 290.8828125 C120.18726563 291.93082031 120.18726563 291.93082031 121 293 C121.33 289.04 121.66 285.08 122 281 C122.99 281 123.98 281 125 281 C125 287.6 125 294.2 125 301 C124.01 301 123.02 301 122 301 C120.32524723 299.05199809 118.84683339 297.15392777 117.375 295.0625 C116.57069384 293.94894321 115.76602431 292.83564877 114.9609375 291.72265625 C113.99027344 290.37494141 113.99027344 290.37494141 113 289 C112.67 288.67 112.34 288.34 112 288 C111.67 292.29 111.34 296.58 111 301 C110.34 301 109.68 301 109 301 C109 294.4 109 287.8 109 281 Z " fill="gold" transform="translate(158,9)"/>
</svg>
